<svg xmlns="http://www.w3.org/2000/svg" viewBox="0 0 240 160" role="img" aria-label="Costo de nómina optimizado">
  <rect width="240" height="160" fill="#F2F0EC"/>
  <path d="M30 130h180" stroke="#0B1F3A" stroke-width="2"/>
  <g stroke="#0B1F3A" stroke-width="2">
    <rect x="44" y="40" width="26" height="90" fill="#fff"/>
    <rect x="84" y="56" width="26" height="74" fill="#fff"/>
    <rect x="124" y="72" width="26" height="58" fill="#fff"/>
    <rect x="164" y="84" width="26" height="46" fill="#C49535"/>
  </g>
  <path d="M50 30 Q120 40 186 72" fill="none" stroke="#C49535" stroke-width="2.5" stroke-linecap="round"/>
  <path d="M176 62l11 11-15 3" fill="none" stroke="#C49535" stroke-width="2.5" stroke-linecap="round" stroke-linejoin="round"/>
  <g transform="translate(196 34)" fill="none" stroke="#0B1F3A" stroke-width="2">
    <circle r="8"/><circle r="3"/>
    <path d="M0-14v4M0 10v4M-14 0h4M10 0h4M-10-10l3 3M7 7l3 3M-10 10l3-3M7-7l3-3"/>
  </g>
</svg>
